<mxfile modified="2023-03-27T14:31:03.374Z" host="app.diagrams.net" agent="Mozilla/5.0 (Windows NT 10.0; Win64; x64) AppleWebKit/537.36 (KHTML, like Gecko) Chrome/111.0.0.0 Safari/537.36" etag="VrSKnCSExTZbvIldYjmv" version="21.1.1" type="device">
  <diagram id="Ht1M8jgEwFfnCIfOTk4-" name="Page-1">
    <mxGraphModel dx="1784" dy="1575" grid="1" gridSize="10" guides="1" tooltips="1" connect="1" arrows="1" fold="1" page="1" pageScale="1" pageWidth="1169" pageHeight="827" math="0" shadow="0">
      <root>
        <mxCell id="0" />
        <mxCell id="1" parent="0" />
        <mxCell id="UEzPUAAOIrF-is8g5C7q-155" value="" style="rounded=0;whiteSpace=wrap;html=1;dashed=1;labelBackgroundColor=#ffffff;fillColor=none;gradientColor=none;container=1;pointerEvents=0;collapsible=0;recursiveResize=0;" parent="1" vertex="1">
          <mxGeometry x="330" y="-780" width="610" height="720" as="geometry" />
        </mxCell>
        <mxCell id="Pu_BuWE72dnZDcZ1S57_-15" value="" style="sketch=0;points=[[0,0,0],[0.25,0,0],[0.5,0,0],[0.75,0,0],[1,0,0],[0,1,0],[0.25,1,0],[0.5,1,0],[0.75,1,0],[1,1,0],[0,0.25,0],[0,0.5,0],[0,0.75,0],[1,0.25,0],[1,0.5,0],[1,0.75,0]];outlineConnect=0;fontColor=#232F3E;gradientColor=#FF4F8B;gradientDirection=north;fillColor=#BC1356;strokeColor=#ffffff;dashed=0;verticalLabelPosition=bottom;verticalAlign=top;align=center;html=1;fontSize=12;fontStyle=0;aspect=fixed;shape=mxgraph.aws4.resourceIcon;resIcon=mxgraph.aws4.mq;" vertex="1" parent="UEzPUAAOIrF-is8g5C7q-155">
          <mxGeometry x="280" y="336" width="78" height="78" as="geometry" />
        </mxCell>
        <mxCell id="Pu_BuWE72dnZDcZ1S57_-62" value="&lt;span style=&quot;font-size: 18px;&quot;&gt;Rabbit MQ&lt;br&gt;&lt;/span&gt;" style="text;strokeColor=none;align=center;fillColor=none;html=1;verticalAlign=middle;whiteSpace=wrap;rounded=0;" vertex="1" parent="UEzPUAAOIrF-is8g5C7q-155">
          <mxGeometry x="289" y="288" width="60" height="30" as="geometry" />
        </mxCell>
        <mxCell id="Pu_BuWE72dnZDcZ1S57_-96" value="Identity&lt;br&gt;microservice" style="shape=hexagon;perimeter=hexagonPerimeter2;whiteSpace=wrap;html=1;fixedSize=1;fillColor=#a20025;strokeColor=#6F0000;fontColor=#ffffff;" vertex="1" parent="UEzPUAAOIrF-is8g5C7q-155">
          <mxGeometry x="110" y="50" width="120" height="80" as="geometry" />
        </mxCell>
        <mxCell id="Pu_BuWE72dnZDcZ1S57_-99" value="Couriers microservice" style="shape=hexagon;perimeter=hexagonPerimeter2;whiteSpace=wrap;html=1;fixedSize=1;fillColor=#e3c800;fontColor=#000000;strokeColor=#B09500;" vertex="1" parent="UEzPUAAOIrF-is8g5C7q-155">
          <mxGeometry x="110" y="580" width="120" height="80" as="geometry" />
        </mxCell>
        <mxCell id="Pu_BuWE72dnZDcZ1S57_-101" value="" style="endArrow=classic;startArrow=classic;html=1;rounded=0;exitX=1;exitY=0.5;exitDx=0;exitDy=0;exitPerimeter=0;entryX=0;entryY=0.5;entryDx=0;entryDy=0;" edge="1" parent="UEzPUAAOIrF-is8g5C7q-155" source="Pu_BuWE72dnZDcZ1S57_-15" target="Pu_BuWE72dnZDcZ1S57_-108">
          <mxGeometry width="50" height="50" relative="1" as="geometry">
            <mxPoint x="380" y="376" as="sourcePoint" />
            <mxPoint x="460" y="377" as="targetPoint" />
          </mxGeometry>
        </mxCell>
        <mxCell id="Pu_BuWE72dnZDcZ1S57_-102" value="" style="endArrow=classic;startArrow=classic;html=1;rounded=0;entryX=0;entryY=1;entryDx=0;entryDy=0;entryPerimeter=0;" edge="1" parent="UEzPUAAOIrF-is8g5C7q-155" target="Pu_BuWE72dnZDcZ1S57_-15">
          <mxGeometry width="50" height="50" relative="1" as="geometry">
            <mxPoint x="210" y="580" as="sourcePoint" />
            <mxPoint x="278.2399999999998" y="419.68000000000006" as="targetPoint" />
          </mxGeometry>
        </mxCell>
        <mxCell id="Pu_BuWE72dnZDcZ1S57_-103" value="" style="endArrow=classic;startArrow=classic;html=1;rounded=0;entryX=0.5;entryY=1;entryDx=0;entryDy=0;exitX=0.5;exitY=0;exitDx=0;exitDy=0;" edge="1" parent="UEzPUAAOIrF-is8g5C7q-155" source="Pu_BuWE72dnZDcZ1S57_-99" target="Pu_BuWE72dnZDcZ1S57_-96">
          <mxGeometry width="50" height="50" relative="1" as="geometry">
            <mxPoint x="160" y="580" as="sourcePoint" />
            <mxPoint x="210" y="530" as="targetPoint" />
          </mxGeometry>
        </mxCell>
        <mxCell id="Pu_BuWE72dnZDcZ1S57_-104" value="" style="endArrow=classic;startArrow=classic;html=1;rounded=0;exitX=1;exitY=0.5;exitDx=0;exitDy=0;" edge="1" parent="UEzPUAAOIrF-is8g5C7q-155" source="Pu_BuWE72dnZDcZ1S57_-99">
          <mxGeometry width="50" height="50" relative="1" as="geometry">
            <mxPoint x="440" y="466" as="sourcePoint" />
            <mxPoint x="490" y="416" as="targetPoint" />
          </mxGeometry>
        </mxCell>
        <mxCell id="Pu_BuWE72dnZDcZ1S57_-107" value="" style="endArrow=classic;startArrow=classic;html=1;rounded=0;entryX=1;entryY=0.5;entryDx=0;entryDy=0;" edge="1" parent="UEzPUAAOIrF-is8g5C7q-155" target="Pu_BuWE72dnZDcZ1S57_-97">
          <mxGeometry width="50" height="50" relative="1" as="geometry">
            <mxPoint x="280" y="380" as="sourcePoint" />
            <mxPoint x="260" y="377" as="targetPoint" />
          </mxGeometry>
        </mxCell>
        <mxCell id="Pu_BuWE72dnZDcZ1S57_-108" value="Batch" style="shape=hexagon;perimeter=hexagonPerimeter2;whiteSpace=wrap;html=1;fixedSize=1;fillColor=#60a917;fontColor=#ffffff;strokeColor=#2D7600;" vertex="1" parent="UEzPUAAOIrF-is8g5C7q-155">
          <mxGeometry x="460" y="336" width="120" height="80" as="geometry" />
        </mxCell>
        <mxCell id="Pu_BuWE72dnZDcZ1S57_-97" value="Orders &lt;br&gt;microservices" style="shape=hexagon;perimeter=hexagonPerimeter2;whiteSpace=wrap;html=1;fixedSize=1;fillColor=#0050ef;fontColor=#ffffff;strokeColor=#001DBC;" vertex="1" parent="UEzPUAAOIrF-is8g5C7q-155">
          <mxGeometry x="25.5" y="340" width="120" height="80" as="geometry" />
        </mxCell>
        <mxCell id="Pu_BuWE72dnZDcZ1S57_-112" value="" style="endArrow=classic;startArrow=classic;html=1;rounded=0;exitX=1;exitY=1;exitDx=0;exitDy=0;exitPerimeter=0;" edge="1" parent="UEzPUAAOIrF-is8g5C7q-155" source="Pu_BuWE72dnZDcZ1S57_-16">
          <mxGeometry width="50" height="50" relative="1" as="geometry">
            <mxPoint x="60" y="670" as="sourcePoint" />
            <mxPoint x="110" y="620" as="targetPoint" />
          </mxGeometry>
        </mxCell>
        <mxCell id="Pu_BuWE72dnZDcZ1S57_-114" value="" style="endArrow=classic;startArrow=classic;html=1;rounded=0;exitX=0.375;exitY=0;exitDx=0;exitDy=0;" edge="1" parent="UEzPUAAOIrF-is8g5C7q-155" source="Pu_BuWE72dnZDcZ1S57_-99">
          <mxGeometry width="50" height="50" relative="1" as="geometry">
            <mxPoint x="40" y="470" as="sourcePoint" />
            <mxPoint x="90" y="420" as="targetPoint" />
          </mxGeometry>
        </mxCell>
        <mxCell id="Pu_BuWE72dnZDcZ1S57_-69" value="&lt;h1&gt;&lt;font style=&quot;&quot;&gt;&lt;font style=&quot;font-size: 20px;&quot;&gt;Parcel delivery application&lt;/font&gt;&lt;/font&gt;&lt;/h1&gt;" style="text;strokeColor=none;align=center;fillColor=none;html=1;verticalAlign=middle;whiteSpace=wrap;rounded=0;" vertex="1" parent="UEzPUAAOIrF-is8g5C7q-155">
          <mxGeometry x="135" width="340" height="30" as="geometry" />
        </mxCell>
        <mxCell id="Pu_BuWE72dnZDcZ1S57_-2" value="Customer" style="points=[[0.03,0.03,0],[0.5,0,0],[0.97,0.03,0],[1,0.4,0],[0.97,0.745,0],[0.5,1,0],[0.03,0.745,0],[0,0.4,0]];verticalLabelPosition=bottom;sketch=0;html=1;verticalAlign=top;aspect=fixed;align=center;pointerEvents=1;shape=mxgraph.cisco19.workstation;fillColor=#005073;strokeColor=none;" vertex="1" parent="1">
          <mxGeometry x="20" y="-540" width="87.5" height="70" as="geometry" />
        </mxCell>
        <mxCell id="Pu_BuWE72dnZDcZ1S57_-9" value="" style="rounded=0;whiteSpace=wrap;html=1;dashed=1;labelBackgroundColor=#ffffff;fillColor=none;gradientColor=none;container=1;pointerEvents=0;collapsible=0;recursiveResize=0;" vertex="1" parent="1">
          <mxGeometry x="970" y="-170" width="184" height="110" as="geometry" />
        </mxCell>
        <mxCell id="Pu_BuWE72dnZDcZ1S57_-30" value="" style="sketch=0;outlineConnect=0;fontColor=#232F3E;gradientColor=none;fillColor=#3F8624;strokeColor=none;dashed=0;verticalLabelPosition=bottom;verticalAlign=top;align=center;html=1;fontSize=12;fontStyle=0;aspect=fixed;pointerEvents=1;shape=mxgraph.aws4.bank;" vertex="1" parent="Pu_BuWE72dnZDcZ1S57_-9">
          <mxGeometry x="14" y="16" width="78" height="78" as="geometry" />
        </mxCell>
        <mxCell id="Pu_BuWE72dnZDcZ1S57_-33" value="&lt;span style=&quot;font-size: 18px;&quot;&gt;Bank service&lt;/span&gt;" style="text;strokeColor=none;align=center;fillColor=none;html=1;verticalAlign=middle;whiteSpace=wrap;rounded=0;" vertex="1" parent="Pu_BuWE72dnZDcZ1S57_-9">
          <mxGeometry x="114" y="10" width="60" height="30" as="geometry" />
        </mxCell>
        <mxCell id="Pu_BuWE72dnZDcZ1S57_-16" value="" style="sketch=0;points=[[0,0,0],[0.25,0,0],[0.5,0,0],[0.75,0,0],[1,0,0],[0,1,0],[0.25,1,0],[0.5,1,0],[0.75,1,0],[1,1,0],[0,0.25,0],[0,0.5,0],[0,0.75,0],[1,0.25,0],[1,0.5,0],[1,0.75,0]];outlineConnect=0;fontColor=#232F3E;gradientColor=#FF4F8B;gradientDirection=north;fillColor=#BC1356;strokeColor=#ffffff;dashed=0;verticalLabelPosition=bottom;verticalAlign=top;align=center;html=1;fontSize=12;fontStyle=0;aspect=fixed;shape=mxgraph.aws4.resourceIcon;resIcon=mxgraph.aws4.api_gateway;" vertex="1" parent="1">
          <mxGeometry x="160" y="-442" width="78" height="78" as="geometry" />
        </mxCell>
        <mxCell id="Pu_BuWE72dnZDcZ1S57_-40" value="&lt;font style=&quot;font-size: 18px;&quot;&gt;API Gateway&lt;/font&gt;" style="text;strokeColor=none;align=center;fillColor=none;html=1;verticalAlign=middle;whiteSpace=wrap;rounded=0;" vertex="1" parent="1">
          <mxGeometry x="169" y="-492" width="60" height="30" as="geometry" />
        </mxCell>
        <mxCell id="Pu_BuWE72dnZDcZ1S57_-70" value="Courier" style="points=[[0.03,0.03,0],[0.5,0,0],[0.97,0.03,0],[1,0.4,0],[0.97,0.745,0],[0.5,1,0],[0.03,0.745,0],[0,0.4,0]];verticalLabelPosition=bottom;sketch=0;html=1;verticalAlign=top;aspect=fixed;align=center;pointerEvents=1;shape=mxgraph.cisco19.workstation;fillColor=#005073;strokeColor=none;" vertex="1" parent="1">
          <mxGeometry x="20" y="-434" width="87.5" height="70" as="geometry" />
        </mxCell>
        <mxCell id="Pu_BuWE72dnZDcZ1S57_-71" value="Admin" style="points=[[0.03,0.03,0],[0.5,0,0],[0.97,0.03,0],[1,0.4,0],[0.97,0.745,0],[0.5,1,0],[0.03,0.745,0],[0,0.4,0]];verticalLabelPosition=bottom;sketch=0;html=1;verticalAlign=top;aspect=fixed;align=center;pointerEvents=1;shape=mxgraph.cisco19.workstation;fillColor=#005073;strokeColor=none;" vertex="1" parent="1">
          <mxGeometry x="20" y="-320" width="87.5" height="70" as="geometry" />
        </mxCell>
        <mxCell id="Pu_BuWE72dnZDcZ1S57_-109" value="" style="endArrow=classic;startArrow=classic;html=1;rounded=0;exitX=1;exitY=0.5;exitDx=0;exitDy=0;entryX=0;entryY=0;entryDx=0;entryDy=0;" edge="1" parent="1" source="Pu_BuWE72dnZDcZ1S57_-108" target="Pu_BuWE72dnZDcZ1S57_-9">
          <mxGeometry width="50" height="50" relative="1" as="geometry">
            <mxPoint x="920" y="-430" as="sourcePoint" />
            <mxPoint x="970" y="-480" as="targetPoint" />
          </mxGeometry>
        </mxCell>
        <mxCell id="Pu_BuWE72dnZDcZ1S57_-110" value="" style="endArrow=classic;startArrow=classic;html=1;rounded=0;entryX=0;entryY=0.5;entryDx=0;entryDy=0;exitX=1;exitY=0;exitDx=0;exitDy=0;exitPerimeter=0;" edge="1" parent="1" source="Pu_BuWE72dnZDcZ1S57_-16" target="Pu_BuWE72dnZDcZ1S57_-96">
          <mxGeometry width="50" height="50" relative="1" as="geometry">
            <mxPoint x="238" y="-452" as="sourcePoint" />
            <mxPoint x="288" y="-502" as="targetPoint" />
          </mxGeometry>
        </mxCell>
        <mxCell id="Pu_BuWE72dnZDcZ1S57_-111" value="" style="endArrow=classic;startArrow=classic;html=1;rounded=0;entryX=0;entryY=0.5;entryDx=0;entryDy=0;exitX=1;exitY=0.5;exitDx=0;exitDy=0;exitPerimeter=0;" edge="1" parent="1" source="Pu_BuWE72dnZDcZ1S57_-16" target="Pu_BuWE72dnZDcZ1S57_-97">
          <mxGeometry width="50" height="50" relative="1" as="geometry">
            <mxPoint x="238" y="-402" as="sourcePoint" />
            <mxPoint x="288" y="-452" as="targetPoint" />
          </mxGeometry>
        </mxCell>
        <mxCell id="Pu_BuWE72dnZDcZ1S57_-115" value="" style="endArrow=classic;startArrow=classic;html=1;rounded=0;entryX=0;entryY=0;entryDx=0;entryDy=0;entryPerimeter=0;" edge="1" parent="1" target="Pu_BuWE72dnZDcZ1S57_-16">
          <mxGeometry width="50" height="50" relative="1" as="geometry">
            <mxPoint x="107.5" y="-500" as="sourcePoint" />
            <mxPoint x="157.5" y="-550" as="targetPoint" />
          </mxGeometry>
        </mxCell>
        <mxCell id="Pu_BuWE72dnZDcZ1S57_-116" value="" style="endArrow=classic;startArrow=classic;html=1;rounded=0;entryX=0;entryY=0.5;entryDx=0;entryDy=0;entryPerimeter=0;exitX=1;exitY=0.4;exitDx=0;exitDy=0;exitPerimeter=0;" edge="1" parent="1" source="Pu_BuWE72dnZDcZ1S57_-70" target="Pu_BuWE72dnZDcZ1S57_-16">
          <mxGeometry width="50" height="50" relative="1" as="geometry">
            <mxPoint x="107.5" y="-400" as="sourcePoint" />
            <mxPoint x="157.5" y="-450" as="targetPoint" />
          </mxGeometry>
        </mxCell>
        <mxCell id="Pu_BuWE72dnZDcZ1S57_-117" value="" style="endArrow=classic;startArrow=classic;html=1;rounded=0;entryX=0;entryY=1;entryDx=0;entryDy=0;entryPerimeter=0;" edge="1" parent="1" target="Pu_BuWE72dnZDcZ1S57_-16">
          <mxGeometry width="50" height="50" relative="1" as="geometry">
            <mxPoint x="107.5" y="-300" as="sourcePoint" />
            <mxPoint x="157.5" y="-350" as="targetPoint" />
          </mxGeometry>
        </mxCell>
      </root>
    </mxGraphModel>
  </diagram>
</mxfile>
